<svg version="1.1" id="Layer_1" xmlns="http://www.w3.org/2000/svg" xmlns:xlink="http://www.w3.org/1999/xlink" x="0px" y="0px"
	 width="100%" viewBox="0 0 1146 1181" width="35px" height='35px' enable-background="new 0 0 1146 1181" xml:space="preserve">



<path fill="#FFFFFF" opacity="1.000000" stroke="none" 
	d="
M23.072527,27.917786 
	C29.036182,30.611046 35.048504,33.202320 40.952915,36.019737 
	C51.767284,41.180050 62.448742,46.622753 73.313187,51.673283 
	C86.048286,57.593414 98.830063,63.431576 111.757248,68.914742 
	C124.222763,74.202080 136.848038,79.125916 149.496582,83.965134 
	C164.269745,89.617218 179.007416,95.417206 194.012924,100.391518 
	C209.183228,105.420441 224.674973,109.475281 240.001282,114.039558 
	C248.899902,116.689644 257.654877,119.876564 266.642120,122.163033 
	C284.414581,126.684563 302.295624,130.781815 320.147766,134.986618 
	C327.975220,136.830261 335.807495,138.684891 343.699677,140.213898 
	C352.881561,141.992737 362.130493,143.426132 371.352234,144.998154 
	C377.759949,146.090454 384.159393,147.238174 390.583160,148.227264 
	C399.190308,149.552567 407.815155,150.764175 416.436829,151.993332 
	C420.723297,152.604446 425.013672,153.196060 429.312927,153.707138 
	C436.075470,154.511078 442.840729,155.300598 449.615936,155.987106 
	C463.120789,157.355530 476.625885,158.731796 490.145752,159.938202 
	C496.378204,160.494324 502.641907,160.772034 508.898010,160.976089 
	C521.573730,161.389526 534.252441,161.749557 546.932739,161.972092 
	C555.982483,162.130890 565.038574,161.923508 574.088196,162.085052 
	C579.304749,162.178162 584.517456,162.990372 589.725769,162.932098 
	C600.112610,162.815933 610.496887,162.369278 620.878784,161.967438 
	C626.793945,161.738480 632.710571,161.436508 638.611145,160.971603 
	C645.403381,160.436447 652.170349,159.578003 658.963501,159.058899 
	C665.346313,158.571167 671.755798,158.437103 678.141174,157.976212 
	C686.102051,157.401581 694.070557,156.828857 701.997314,155.919815 
	C708.073486,155.223022 714.074951,153.899780 720.136047,153.041824 
	C734.560547,150.999985 749.023315,149.218018 763.427612,147.046341 
	C775.240845,145.265289 787.019836,143.221832 798.764160,141.027527 
	C814.130554,138.156448 829.519348,135.338959 844.763428,131.899704 
	C856.628906,129.222687 868.310669,125.712120 880.032776,122.424484 
	C894.984985,118.230888 909.984985,114.174393 924.800293,109.534737 
	C941.419983,104.329994 957.908630,98.689659 974.354736,92.953476 
	C985.770874,88.971634 997.103638,84.718109 1008.318665,80.201172 
	C1020.088440,75.460838 1031.698975,70.320663 1043.331055,65.244934 
	C1053.526245,60.796200 1063.757690,56.410046 1073.789062,51.611214 
	C1089.713013,43.993416 1105.455933,35.997879 1121.351929,28.320471 
	C1123.459961,27.302322 1126.016357,27.212297 1129.000000,26.551931 
	C1129.000000,33.020775 1128.997070,38.966541 1129.000610,44.912304 
	C1129.007080,55.922382 1129.021118,66.932465 1129.024780,77.942543 
	C1129.027588,86.344200 1128.891968,94.748245 1129.049316,103.146896 
	C1129.237915,113.213867 1129.811279,123.274139 1129.962402,133.341156 
	C1130.127319,144.322205 1129.911133,155.308792 1130.054565,166.290436 
	C1130.097290,169.562912 1129.381958,171.073486 1125.660278,171.089966 
	C1116.448853,171.130722 1107.240356,171.861664 1098.028931,171.902374 
	C1068.110962,172.034653 1038.191772,172.060532 1008.273987,171.909836 
	C1004.078186,171.888733 1002.734009,173.074173 1002.923157,177.281113 
	C1003.457947,189.174011 1003.813782,201.082199 1003.878235,212.986328 
	C1003.919250,220.554169 1003.191284,228.122940 1003.034668,235.695999 
	C1002.877075,243.317505 1003.000000,250.944824 1003.000000,259.284241 
	C1045.293457,259.284241 1087.304077,259.284241 1129.776489,259.284241 
	C1129.843506,260.502777 1129.988770,261.925690 1129.989868,263.348694 
	C1130.004761,283.180450 1130.000000,303.012238 1130.000000,322.843994 
	C1130.000000,333.628662 1129.875854,344.415131 1130.030151,355.197601 
	C1130.243408,370.102722 1130.565552,385.008270 1131.068481,399.905945 
	C1131.199951,403.800476 1130.103760,405.148224 1126.039429,405.110382 
	C1119.003906,405.044922 1111.961426,405.945740 1104.923218,405.926727 
	C1095.901001,405.902344 1086.878418,405.063660 1077.859253,405.116364 
	C1056.456543,405.241394 1035.055786,405.691376 1013.653870,405.993439 
	C1010.329224,406.040375 1007.003418,406.000000 1003.000000,406.000000 
	C1003.000000,407.855469 1003.053711,409.608276 1002.991760,411.356964 
	C1002.338013,429.816803 1002.107544,448.306427 1000.838074,466.724243 
	C1000.036926,478.347290 997.027466,489.815247 996.174500,501.438293 
	C995.073120,516.446411 990.074219,530.377991 985.941101,544.561035 
	C981.296997,560.497375 973.279297,574.966675 964.413391,588.807068 
	C958.704407,597.719421 951.746643,605.960632 944.536194,613.750671 
	C934.863403,624.201050 925.250916,635.014954 914.070557,643.684204 
	C900.154724,654.474609 885.176025,664.151428 868.612427,670.740173 
	C857.947510,674.982544 847.590210,679.958740 835.803467,681.196350 
	C826.601257,682.162537 817.660645,685.652405 808.458557,686.579895 
	C798.395996,687.594055 788.157349,687.249329 778.012146,686.943237 
	C768.716492,686.662720 759.443115,685.643982 750.159790,684.952698 
	C749.994202,684.940369 749.813965,684.996033 749.661804,684.950012 
	C741.437378,682.463928 733.219238,679.957092 724.991028,677.483704 
	C721.763489,676.513550 718.484985,675.705872 715.279358,674.670410 
	C700.672974,669.952148 687.604431,662.201843 674.629761,654.201843 
	C663.302612,647.217529 653.063904,638.814941 643.473816,629.751831 
	C631.412659,618.353455 620.953064,605.467834 612.603088,591.040222 
	C609.747620,586.106445 607.659302,580.729431 604.819824,575.785095 
	C603.958740,574.285645 601.754456,573.557678 600.176453,572.483887 
	C598.161987,578.307800 596.200562,584.356262 593.975952,590.306335 
	C591.633728,596.570679 589.661987,603.088074 586.428711,608.881226 
	C579.296631,621.659607 572.296509,634.652954 563.699707,646.432617 
	C555.164246,658.128357 545.403870,669.135742 534.967163,679.184753 
	C522.838562,690.862915 508.895233,700.540283 493.668091,707.929688 
	C482.503113,713.347717 471.321014,719.743774 459.411743,722.362976 
	C443.871979,725.780579 428.593231,731.519104 412.023743,730.216431 
	C401.529785,729.391296 390.826141,731.422729 380.297241,730.802673 
	C368.002197,730.078613 355.577515,730.322388 343.505005,726.392517 
	C333.624908,723.176331 323.172241,721.758484 313.172241,718.857849 
	C306.166351,716.825806 299.337036,713.979065 292.709839,710.892761 
	C281.179382,705.523010 269.484650,700.329285 258.577057,693.852173 
	C249.127136,688.240540 240.441467,681.239868 231.844650,674.322815 
	C223.487396,667.598450 215.419708,660.460754 207.718704,652.995178 
	C203.431915,648.839478 200.100372,643.684631 196.433105,638.907288 
	C192.382217,633.630188 188.073883,628.499451 184.551392,622.882385 
	C180.923767,617.097717 178.138123,610.787903 174.928055,604.737549 
	C171.998932,599.216736 168.631119,593.895874 166.121231,588.194275 
	C163.358002,581.917175 161.150589,575.370605 159.070511,568.824036 
	C156.655060,561.221985 154.035416,553.603760 152.597549,545.791382 
	C150.544342,534.635742 149.067581,523.332947 148.099289,512.028381 
	C146.709274,495.800751 145.883499,479.520966 145.031799,463.252197 
	C144.212311,447.598572 143.584854,431.933472 143.038330,416.267639 
	C142.805634,409.597595 143.001740,409.749359 136.469528,409.954865 
	C129.976471,410.159088 123.471954,409.999969 116.972466,410.000000 
	C87.808090,410.000031 58.643093,409.905762 29.480009,410.099548 
	C25.004496,410.129272 23.834940,408.768158 23.905119,404.426605 
	C24.150200,389.265106 24.121910,374.095886 23.958092,358.932190 
	C23.844681,348.434418 23.103722,337.941498 23.076206,327.445282 
	C23.052197,318.287903 23.888800,309.128632 23.878773,299.970703 
	C23.867941,290.077911 23.467148,280.177399 22.928495,270.297058 
	C22.700548,266.115845 24.033693,264.875854 28.258724,264.907532 
	C53.255348,265.095093 78.254097,265.000000 103.252129,265.000000 
	C115.369926,265.000000 127.487724,265.000000 141.000000,265.000000 
	C141.000000,257.849487 141.000000,250.997299 141.000000,244.145126 
	C141.000000,235.294769 141.130020,226.441940 140.963120,217.594742 
	C140.798920,208.891815 140.215439,200.196686 140.059662,191.493759 
	C139.999207,188.115875 140.451294,184.702866 140.951569,181.347855 
	C141.499039,177.676346 139.769333,176.283813 135.869598,176.475494 
	C131.215332,176.704239 126.521996,175.996811 121.851501,176.070343 
	C114.988564,176.178391 108.131790,176.831039 101.270676,176.861053 
	C93.737946,176.894012 86.204224,176.415390 78.668839,176.309097 
	C76.458519,176.277924 74.241905,176.957718 72.026688,176.967270 
	C57.361450,177.030533 42.693932,176.871323 28.031527,177.084885 
	C24.059458,177.142731 22.897486,175.958572 22.917313,171.978592 
	C23.068270,141.674316 23.065006,111.368729 22.954399,81.064117 
	C22.926668,73.466354 22.207787,65.873489 22.038258,58.273205 
	C21.871986,50.819172 21.847536,43.352962 22.119455,35.905193 
	C22.179350,34.264759 23.750086,32.679493 24.881496,30.596849 
	C24.731169,30.495319 23.697844,29.797419 22.659546,28.678572 
	C22.793892,28.144346 22.933208,28.031065 23.072527,27.917786 
M314.970184,510.662506 
	C326.238586,527.090759 341.895264,537.711243 360.514099,543.841309 
	C368.406067,546.439819 376.799744,547.805237 385.076416,548.859436 
	C392.717773,549.832764 400.525085,550.101440 408.226318,549.809570 
	C413.981506,549.591431 419.794800,548.401794 425.385712,546.908813 
	C435.081268,544.319702 445.405457,542.587036 454.027100,537.866882 
	C463.979889,532.418030 473.265472,524.986816 481.184906,516.812195 
	C488.442383,509.320831 494.776062,500.281891 499.119934,490.824005 
	C502.690460,483.049927 506.709656,475.165741 507.400665,465.822784 
	C508.397827,452.341278 512.584351,439.108643 513.777039,425.625397 
	C515.347229,407.874573 515.486877,389.987579 515.944763,372.151550 
	C516.239258,360.678040 516.000000,349.190826 516.000000,337.709778 
	C516.000000,304.890594 516.010376,272.071411 515.989502,239.252228 
	C515.986145,233.958893 515.866272,228.665207 515.759888,223.372482 
	C515.619141,216.364029 515.380310,209.357101 515.292297,202.348160 
	C515.211609,195.922104 515.275146,189.494247 515.275146,184.000000 
	C476.818665,184.000000 439.185486,184.000000 401.552277,184.000000 
	C363.829620,184.000000 326.106964,184.000000 288.000000,184.000000 
	C288.000000,187.023193 288.000000,188.645874 288.000000,190.268570 
	C288.000000,228.252197 287.829376,266.236816 288.046936,304.219177 
	C288.274109,343.878723 286.623077,383.578339 290.036194,423.179779 
	C291.142395,436.014435 292.590607,448.822052 294.055389,461.622253 
	C294.605865,466.433014 295.195404,471.324219 296.588562,475.930328 
	C298.055237,480.779480 300.173431,485.511414 302.600372,489.971680 
	C306.320526,496.808533 310.548767,503.368896 314.970184,510.662506 
M686.541687,182.947525 
	C682.492981,182.663300 678.439636,182.101288 674.396912,182.169464 
	C669.951660,182.244446 665.516296,182.899384 661.000061,183.308578 
	C661.000061,207.867706 660.869934,231.999680 661.036377,256.129608 
	C661.204346,280.483246 661.791321,304.833984 661.969666,329.187622 
	C662.214111,362.561676 660.697205,396.012329 666.083496,429.153412 
	C667.262268,436.406097 668.876404,443.716431 671.411133,450.586609 
	C674.329468,458.496307 678.032227,466.213196 682.259277,473.512939 
	C685.651794,479.371552 689.729675,485.110260 694.578247,489.788147 
	C703.282837,498.186279 712.818115,505.319336 724.646912,509.596039 
	C734.375854,513.113586 744.281006,514.997131 754.272400,515.763123 
	C766.631592,516.710632 778.938293,515.721680 791.235107,512.353210 
	C800.177734,509.903534 808.446106,506.556213 816.173462,501.850708 
	C821.022644,498.897827 825.285522,494.895355 829.512085,491.035919 
	C832.602295,488.214203 835.721558,485.179749 837.905762,481.666748 
	C841.335266,476.151031 843.778137,470.031982 847.017639,464.385803 
	C852.040161,455.631805 853.466797,445.844360 854.829041,436.220337 
	C856.541443,424.122589 857.551147,411.862549 857.885803,399.645691 
	C858.593689,373.804810 858.734985,347.947174 858.974121,322.095123 
	C859.115540,306.808899 859.116943,291.519226 858.973572,276.233032 
	C858.737793,251.087662 858.323975,225.944016 858.008301,200.799332 
	C857.949768,196.134354 858.026978,191.467819 857.992920,186.802353 
	C857.953430,181.375748 856.316406,180.225128 850.906250,181.586746 
	C849.645508,181.904037 848.296814,181.983398 846.988464,181.983887 
	C795.203674,182.002823 743.418884,181.992523 691.634155,182.039810 
	C690.228455,182.041092 688.823303,182.633499 686.541687,182.947525 
z"/>
<path fill="#FFFFFF" opacity="1.000000" stroke="none" 
	d="
M196.726059,917.697144 
	C198.798874,914.593994 200.364975,911.563293 202.526321,909.043091 
	C212.727509,897.148254 226.209488,890.455750 241.092361,887.201965 
	C256.993683,883.725525 272.395294,886.717896 286.417358,895.084229 
	C288.610046,896.392578 290.351349,899.782715 290.647400,902.397461 
	C290.800354,903.748596 287.566681,906.267029 285.440552,906.958435 
	C275.415558,910.218323 265.213898,912.930237 255.141525,916.051453 
	C251.515915,917.174866 248.075943,918.897217 244.283737,920.760132 
	C252.417099,918.792542 254.001205,926.429260 258.273529,929.950500 
	C265.641174,936.022888 272.280304,942.975281 279.605042,949.104370 
	C291.782166,959.293762 304.074493,969.365479 316.668671,979.030090 
	C327.018524,986.972534 337.655487,994.471069 349.473206,1000.357056 
	C361.205017,1006.200195 371.925018,1014.107056 383.741516,1019.739502 
	C396.800812,1025.964355 410.557495,1030.748657 424.094574,1035.941040 
	C433.008362,1039.360107 441.943970,1042.829956 451.100616,1045.479492 
	C461.386780,1048.456055 471.894440,1050.713867 482.375854,1052.956543 
	C494.197296,1055.485840 506.027344,1058.152710 517.985535,1059.805542 
	C526.760620,1061.018311 535.755371,1060.572144 544.639160,1061.088867 
	C552.967651,1061.573120 561.269287,1062.614014 569.600891,1062.927368 
	C578.253479,1063.253052 586.952759,1063.421753 595.587524,1062.911987 
	C613.447937,1061.857422 631.425232,1062.003662 648.947144,1057.177490 
	C654.847290,1055.552246 661.260315,1055.879272 667.381531,1054.940186 
	C672.941040,1054.087402 678.471863,1052.921143 683.925842,1051.540161 
	C690.421753,1049.895386 696.846069,1047.951294 703.256531,1045.990234 
	C707.977600,1044.546021 712.546021,1042.544678 717.321960,1041.348389 
	C735.769775,1036.727783 753.025879,1029.190796 769.921692,1020.634766 
	C781.265930,1014.889893 793.131470,1010.097534 804.144531,1003.796570 
	C815.628174,997.226440 826.557678,989.624634 837.376160,981.974426 
	C846.522644,975.506470 855.316711,968.510559 863.984863,961.404480 
	C872.105652,954.747070 879.979126,947.772766 887.735779,940.690796 
	C895.411987,933.682312 902.761353,926.316895 910.364502,919.226440 
	C911.772583,917.913269 913.705261,917.162720 915.509583,916.084473 
	C906.110962,913.230896 896.544373,910.204712 886.897461,907.460754 
	C883.337646,906.448242 879.564819,906.209961 875.932129,905.421082 
	C871.854431,904.535583 868.688477,901.766052 869.308594,897.776123 
	C869.696350,895.281006 872.733154,892.708496 875.192444,891.112305 
	C884.103699,885.328186 894.502991,883.510925 904.682556,883.288818 
	C915.568970,883.051270 926.768982,883.881531 936.546814,890.040833 
	C941.862793,893.389526 947.807495,896.069458 952.341736,900.268005 
	C965.683838,912.622131 973.176514,928.086792 972.811646,946.484497 
	C972.684021,952.915771 970.772888,955.327271 966.007507,954.908508 
	C964.407837,954.767944 962.583984,953.898621 961.408081,952.785889 
	C956.390015,948.037598 951.710938,942.928650 946.656860,938.221191 
	C938.509155,930.632019 930.135071,923.295959 920.012451,919.082581 
	C920.012451,921.558411 920.686340,924.136841 919.901184,926.144775 
	C915.373413,937.725037 911.438354,949.682434 905.512939,960.534912 
	C897.704163,974.837158 888.828979,988.660339 879.292908,1001.882141 
	C872.272095,1011.616516 863.538940,1020.131287 855.420105,1029.054199 
	C846.103638,1039.293335 835.520691,1048.140137 825.094055,1057.231079 
	C813.655823,1067.203979 801.170105,1075.518433 788.571106,1083.673706 
	C778.559937,1090.153687 767.900391,1095.754639 757.124878,1100.900146 
	C743.457825,1107.426392 729.550842,1113.532593 715.430664,1119.002075 
	C703.673279,1123.556396 691.626709,1127.607056 679.400635,1130.641724 
	C666.446106,1133.857178 653.202271,1136.199707 639.951477,1137.857422 
	C622.121094,1140.087769 604.172241,1142.479980 586.257202,1142.619751 
	C567.477417,1142.766357 548.649597,1140.635254 529.896484,1138.913818 
	C518.121094,1137.832886 506.350739,1136.147827 494.753113,1133.850464 
	C485.190308,1131.956177 475.917572,1128.637329 466.457458,1126.176025 
	C452.012024,1122.417480 437.911865,1117.807251 424.452667,1111.229126 
	C415.023956,1106.620850 405.108734,1102.980469 395.810333,1098.140381 
	C385.746277,1092.901611 375.794159,1087.287354 366.431854,1080.900757 
	C354.374054,1072.675537 342.737915,1063.786743 331.323395,1054.678467 
	C322.545166,1047.673706 314.033997,1040.246826 306.066650,1032.340210 
	C299.321167,1025.646118 293.241638,1018.217102 287.372375,1010.718140 
	C277.229126,997.758484 267.974762,984.245728 259.671539,969.922729 
	C251.964737,956.628601 246.308319,942.588745 240.321365,928.610657 
	C239.646317,927.034607 239.945419,925.041382 239.710892,922.276123 
	C237.880020,923.507629 236.578430,924.515808 235.159836,925.316650 
	C222.205994,932.629944 211.855042,942.887512 202.312653,954.098755 
	C201.185394,955.423218 199.574265,956.379517 198.080215,957.339539 
	C194.121338,959.883301 189.859070,957.750793 188.955292,953.175049 
	C186.893494,942.736511 189.527283,932.988892 193.072800,923.383667 
	C193.791992,921.435242 195.332031,919.789856 196.726059,917.697144 
z"/>
<path fill="#FFFFFF" opacity="1.000000" stroke="none" 
	d="
M22.429779,28.405989 
	C21.890093,28.114790 21.575199,27.675228 21.260305,27.235666 
	C21.799961,27.276112 22.339619,27.316557 22.975901,27.637394 
	C22.933208,28.031065 22.793892,28.144346 22.429779,28.405989 
z"/>
</svg>
